<?xml version="1.0" encoding="UTF-8"?>
<svg xmlns="http://www.w3.org/2000/svg" viewBox="0 0 32 32" width="32" height="32">
  <defs>
    <linearGradient id="bg" x1="0" y1="0" x2="1" y2="1">
      <stop offset="0" stop-color="#1e3a8a"/>
      <stop offset="1" stop-color="#2563eb"/>
    </linearGradient>
  </defs>
  <rect width="32" height="32" rx="7" fill="url(#bg)"/>
  <path d="M 12 10 Q 10 12 9 15 Q 7 19 8 23 Q 10 27 16 27 Q 22 27 24 23 Q 25 19 23 15 Q 22 12 20 10 Z"
        fill="#f4f4f5" stroke="#0f172a" stroke-width="0.9" stroke-linejoin="round"/>
  <path d="M 12 10 Q 13 7 15 9 Q 17 7 19 9 Q 20 7 20 10 Z"
        fill="#f4f4f5" stroke="#0f172a" stroke-width="0.8" stroke-linejoin="round"/>
  <circle cx="13.4" cy="17" r="1.1" fill="#0f172a"/>
  <circle cx="18.6" cy="17" r="1.1" fill="#0f172a"/>
  <path d="M 13.4 20 Q 16 22 18.6 20" stroke="#0f172a" stroke-width="0.8" stroke-linecap="round" fill="none"/>
</svg>
